<svg xmlns="http://www.w3.org/2000/svg" viewBox="0 0 841.89 595.28"><defs><style>.cls-1{fill:none;stroke:#ed0776;stroke-miterlimit:10;stroke-width:3px;}</style></defs><title>Artboard 1</title><g id="Layer_2" data-name="Layer 2"><line class="cls-1" x1="526" y1="247.66" x2="526" y2="246.99"/><line class="cls-1" x1="514.25" y1="147.81" x2="487.92" y2="170.52"/><polyline class="cls-1" points="576.42 172.97 560.21 186.39 559.33 187.12"/><polyline class="cls-1" points="560.42 186.61 560.21 186.39 549.87 175.66"/><line class="cls-1" x1="549.87" y1="175.66" x2="576.42" y2="172.97"/><line class="cls-1" x1="532.31" y1="128.75" x2="545.62" y2="149.25"/><line class="cls-1" x1="585.26" y1="166.2" x2="695.5" y2="217.62"/><line class="cls-1" x1="695.5" y1="217.62" x2="592.75" y2="160.47"/><line class="cls-1" x1="470.25" y1="176.66" x2="486" y2="194.33"/><polyline class="cls-1" points="486 194.33 429.57 256.26 427.75 258.25"/><polyline class="cls-1" points="429.38 257 429.57 256.26 438.81 219.5"/><line class="cls-1" x1="434.65" y1="155.54" x2="438.81" y2="219.5"/><line class="cls-1" x1="438.81" y1="219.5" x2="470.1" y2="176.11"/><line class="cls-1" x1="405.44" y1="138.59" x2="470.25" y2="176.66"/><line class="cls-1" x1="487.92" y1="170.51" x2="405.44" y2="138.59"/><line class="cls-1" x1="415.61" y1="256.43" x2="397" y2="288.5"/><line class="cls-1" x1="425.96" y1="288.9" x2="387.5" y2="332.25"/><line class="cls-1" x1="387.5" y1="332.25" x2="397" y2="288.5"/><line class="cls-1" x1="436.5" y1="318.75" x2="422.32" y2="301.66"/><polyline class="cls-1" points="410 341 422.32 301.66 426.29 289"/><line class="cls-1" x1="455.13" y1="310.13" x2="426.45" y2="289.63"/><line class="cls-1" x1="436.5" y1="318.75" x2="410" y2="341"/><line class="cls-1" x1="410" y1="341" x2="436.5" y2="332.25"/><line class="cls-1" x1="436.5" y1="332.25" x2="456" y2="320.75"/><line class="cls-1" x1="456" y1="320.75" x2="436.5" y2="318.75"/><polyline class="cls-1" points="444.24 503.25 455.41 572.23 455.5 572.75"/><polyline class="cls-1" points="455.39 572.42 455.41 572.23 468.88 467.25"/><line class="cls-1" x1="444.24" y1="503.25" x2="457.17" y2="431.75"/><line class="cls-1" x1="468.88" y1="466.34" x2="444.24" y2="503.25"/><line class="cls-1" x1="423.93" y1="352.31" x2="439" y2="386.68"/><line class="cls-1" x1="441.62" y1="391" x2="437.09" y2="331.9"/><line class="cls-1" x1="414.35" y1="339.56" x2="437.09" y2="331.9"/><line class="cls-1" x1="423.93" y1="352.31" x2="395.35" y2="368.81"/><line class="cls-1" x1="386.63" y1="355.75" x2="410" y2="341"/><line class="cls-1" x1="412.71" y1="434.38" x2="417.89" y2="466.34"/><line class="cls-1" x1="420.94" y1="393.62" x2="402.98" y2="383.12"/><line class="cls-1" x1="402.98" y1="383.12" x2="415.9" y2="408.62"/><line class="cls-1" x1="415.9" y1="408.62" x2="412.71" y2="434.38"/><line class="cls-1" x1="455.92" y1="337.68" x2="437.09" y2="331.9"/><line class="cls-1" x1="410" y1="341" x2="338.12" y2="476.46"/><line class="cls-1" x1="338.12" y1="476.46" x2="387.5" y2="408.62"/><line class="cls-1" x1="402.58" y1="413.33" x2="387.53" y2="409.2"/><line class="cls-1" x1="396.27" y1="463.5" x2="390" y2="453.25"/><line class="cls-1" x1="390" y1="453.25" x2="365" y2="508.75"/><line class="cls-1" x1="365" y1="508.75" x2="396.27" y2="463.5"/><line class="cls-1" x1="404.8" y1="249.52" x2="407.63" y2="270.18"/><line class="cls-1" x1="397" y1="288.5" x2="404.8" y2="249.52"/><line class="cls-1" x1="292.76" y1="79.46" x2="350.5" y2="125.66"/><polyline class="cls-1" points="350.5 125.67 405.25 138.5 405.8 138.63"/><polyline class="cls-1" points="405.44 138.59 405.25 138.5 292.76 79.44 291.2 78.63"/><polyline class="cls-1" points="426.73 225.14 405.48 249.29 405.06 249.77"/><polyline class="cls-1" points="405.08 249.04 405.48 249.29 415.33 255.56"/><line class="cls-1" x1="429.38" y1="255.25" x2="426.73" y2="226.04"/><line class="cls-1" x1="349.75" y1="125.67" x2="231.23" y2="79.46"/><line class="cls-1" x1="426.73" y1="226.04" x2="415.61" y2="256.43"/><line class="cls-1" x1="415.61" y1="256.43" x2="430" y2="255.84"/><line class="cls-1" x1="426.73" y1="226.04" x2="438.81" y2="219.5"/><line class="cls-1" x1="559.33" y1="186.33" x2="526" y2="246.99"/><line class="cls-1" x1="552.68" y1="132.5" x2="546.06" y2="149.69"/><line class="cls-1" x1="569.09" y1="138.63" x2="553.71" y2="132.31"/><line class="cls-1" x1="594.17" y1="160.75" x2="569.09" y2="138.63"/><line class="cls-1" x1="546.06" y1="149.69" x2="592.75" y2="160.47"/><polyline class="cls-1" points="532.32 128.75 514.98 147.04 514.88 147.13 514.25 147.81"/><polyline class="cls-1" points="514.75 147.02 514.88 147.13 549.88 175.66"/><polyline class="cls-1" points="514.75 147.02 514.98 147.04 545.63 149.65 546.07 149.69"/><polyline class="cls-1" points="545.63 149.69 550.55 175.53 550.64 176.01"/><line class="cls-1" x1="559.33" y1="186.33" x2="486" y2="194.33"/><line class="cls-1" x1="505.33" y1="224.46" x2="486" y2="194.33"/><line class="cls-1" x1="505.33" y1="224.46" x2="559.33" y2="186.33"/><line class="cls-1" x1="455.56" y1="227.48" x2="505.33" y2="224.46"/><polyline class="cls-1" points="476.46 303 525.26 248.49 526 247.66"/><line class="cls-1" x1="491.56" y1="265.2" x2="524.33" y2="247.66"/><line class="cls-1" x1="491.56" y1="265.2" x2="476.46" y2="303"/><polyline class="cls-1" points="526.39 247.48 525.96 247.01 505.33 224.46"/><line class="cls-1" x1="491.56" y1="265.2" x2="505.33" y2="224.46"/><polyline class="cls-1" points="526 246.99 525.96 247.01 491.56 265.2"/><line class="cls-1" x1="458.88" y1="255.25" x2="491.56" y2="265.2"/><line class="cls-1" x1="458.88" y1="255.25" x2="505.33" y2="224.46"/><line class="cls-1" x1="505.33" y1="224.46" x2="491.56" y2="265.2"/><line class="cls-1" x1="454.97" y1="227.62" x2="458.88" y2="255.25"/><line class="cls-1" x1="452.25" y1="262.33" x2="476.46" y2="303"/><line class="cls-1" x1="458.88" y1="255.25" x2="452.25" y2="262.33"/><line class="cls-1" x1="452.25" y1="262.33" x2="427.75" y2="258.25"/><line class="cls-1" x1="454.97" y1="227.62" x2="458.88" y2="255.25"/><line class="cls-1" x1="427.75" y1="258.25" x2="426.25" y2="289.62"/><line class="cls-1" x1="452.25" y1="262.33" x2="426.29" y2="289"/><line class="cls-1" x1="426" y1="288.5" x2="473.75" y2="308.5"/><line class="cls-1" x1="476.46" y1="303" x2="473.75" y2="309.5"/><line class="cls-1" x1="549.76" y1="176.06" x2="487.01" y2="170.7"/><line class="cls-1" x1="467.84" y1="178.72" x2="487.01" y2="170.7"/><line class="cls-1" x1="456" y1="320.75" x2="463.13" y2="331.38"/><polyline class="cls-1" points="462.75 332.25 463.16 331.4 473.75 309.5"/><polyline class="cls-1" points="473.75 309.5 454.97 309.5 454.25 309.5"/><line class="cls-1" x1="454.97" y1="309.5" x2="456" y2="320.75"/><line class="cls-1" x1="420.38" y1="177.47" x2="431.86" y2="211.65"/><line class="cls-1" x1="381.31" y1="138" x2="405.44" y2="138.6"/><line class="cls-1" x1="420.38" y1="177.47" x2="434.65" y2="155.54"/><line class="cls-1" x1="438.81" y1="219.5" x2="431.86" y2="210.33"/><polyline class="cls-1" points="455.92 337.68 456 337.83 501.26 420.62"/><line class="cls-1" x1="502.36" y1="423.12" x2="462.75" y2="332.25"/><polyline class="cls-1" points="462.75 332.25 456 337.83 455.94 337.88"/><line class="cls-1" x1="455.92" y1="337.68" x2="447.68" y2="370.75"/><line class="cls-1" x1="447.68" y1="370.75" x2="486.65" y2="446.5"/><line class="cls-1" x1="486.65" y1="446.5" x2="510" y2="460.5"/><line class="cls-1" x1="510" y1="460.5" x2="502.36" y2="423.12"/><line class="cls-1" x1="473.31" y1="369.5" x2="456" y2="374.74"/><line class="cls-1" x1="447.68" y1="370.75" x2="445.47" y2="394.88"/><line class="cls-1" x1="502.36" y1="423.12" x2="455.25" y2="374.38"/><line class="cls-1" x1="445.47" y1="394.88" x2="486.65" y2="446.5"/><line class="cls-1" x1="445.47" y1="394.88" x2="468.88" y2="466.34"/><line class="cls-1" x1="468.88" y1="466.34" x2="501.26" y2="499.88"/><line class="cls-1" x1="501.26" y1="499.88" x2="486.65" y2="446.5"/><line class="cls-1" x1="436.14" y1="380.17" x2="420.94" y2="393.62"/><polyline class="cls-1" points="441.62 391 438.02 402.44 417.89 466.34"/><line class="cls-1" x1="417.89" y1="466.34" x2="410" y2="494.25"/><line class="cls-1" x1="410" y1="494.25" x2="423.63" y2="525.57"/><line class="cls-1" x1="423.63" y1="525.57" x2="444.24" y2="503.25"/><line class="cls-1" x1="444.24" y1="503.25" x2="439" y2="402.75"/><line class="cls-1" x1="402.58" y1="413.33" x2="412.71" y2="433.88"/><line class="cls-1" x1="402.58" y1="413.33" x2="402.25" y2="383.38"/><line class="cls-1" x1="402.58" y1="382.81" x2="387.5" y2="408.62"/><line class="cls-1" x1="387.5" y1="408.62" x2="390" y2="453.25"/><line class="cls-1" x1="390" y1="453.25" x2="412.71" y2="434.38"/><line class="cls-1" x1="415.9" y1="408.62" x2="402.58" y2="413.33"/><line class="cls-1" x1="412.71" y1="433.88" x2="387.5" y2="408.62"/><line class="cls-1" x1="412.71" y1="434.38" x2="396.27" y2="463.5"/><line class="cls-1" x1="396.27" y1="463.5" x2="395.5" y2="514.75"/><line class="cls-1" x1="395.5" y1="517" x2="410" y2="494.25"/><line class="cls-1" x1="410" y1="494.25" x2="417.89" y2="466.34"/><line class="cls-1" x1="417.89" y1="466.34" x2="412.71" y2="434.38"/><line class="cls-1" x1="422.32" y1="301.66" x2="454.25" y2="309.5"/><line class="cls-1" x1="386.63" y1="355.75" x2="387.5" y2="332.25"/><line class="cls-1" x1="475.51" y1="361.53" x2="513.75" y2="406.63"/><line class="cls-1" x1="513.75" y1="406.63" x2="521.75" y2="431.25"/><line class="cls-1" x1="521.75" y1="431.25" x2="502.36" y2="423.12"/><line class="cls-1" x1="456" y1="374.74" x2="447.68" y2="370.75"/><line class="cls-1" x1="558.6" y1="187.66" x2="542.67" y2="242.94"/><line class="cls-1" x1="542.67" y1="242.94" x2="526" y2="246.99"/><line class="cls-1" x1="542.67" y1="242.94" x2="538.5" y2="255.84"/><line class="cls-1" x1="538.5" y1="255.84" x2="476.46" y2="303"/><line class="cls-1" x1="526" y1="246.99" x2="518.89" y2="270.75"/><line class="cls-1" x1="426.73" y1="225.14" x2="404.8" y2="249.52"/><line class="cls-1" x1="404.8" y1="249.52" x2="355.11" y2="270.18"/><line class="cls-1" x1="355.11" y1="270.18" x2="323" y2="259.36"/><line class="cls-1" x1="323" y1="259.36" x2="333.5" y2="245.3"/><line class="cls-1" x1="333.5" y1="245.3" x2="394.7" y2="242.94"/><line class="cls-1" x1="394.7" y1="242.94" x2="405.08" y2="249.04"/><line class="cls-1" x1="394.7" y1="242.94" x2="425.92" y2="225.14"/><line class="cls-1" x1="333.5" y1="245.3" x2="306" y2="234.28"/><line class="cls-1" x1="306" y1="234.28" x2="320.47" y2="216.66"/><line class="cls-1" x1="389.12" y1="229.83" x2="394.7" y2="242.94"/><line class="cls-1" x1="374.5" y1="215.3" x2="410" y2="208"/><line class="cls-1" x1="364.1" y1="186.33" x2="283" y2="163.49"/><line class="cls-1" x1="374.5" y1="215.3" x2="397" y2="197.48"/><line class="cls-1" x1="397" y1="197.48" x2="364.1" y2="186.33"/><line class="cls-1" x1="364.1" y1="186.33" x2="374.5" y2="215.3"/><line class="cls-1" x1="283" y1="163.49" x2="265.5" y2="158.75"/><line class="cls-1" x1="265.5" y1="158.75" x2="277.6" y2="147.02"/><line class="cls-1" x1="277.6" y1="147.02" x2="363.13" y2="159"/><line class="cls-1" x1="363.13" y1="159" x2="283" y2="163.49"/><line class="cls-1" x1="385.93" y1="168.47" x2="364.1" y2="186.33"/><line class="cls-1" x1="420.38" y1="177.47" x2="385.93" y2="168.47"/><line class="cls-1" x1="385.93" y1="168.47" x2="349.75" y2="125.67"/><line class="cls-1" x1="349.75" y1="125.67" x2="381.31" y2="138"/><line class="cls-1" x1="381.31" y1="138" x2="420.38" y2="177.47"/><line class="cls-1" x1="397" y1="197.48" x2="420.38" y2="177.47"/><line class="cls-1" x1="397" y1="197.48" x2="427.29" y2="197.22"/><line class="cls-1" x1="427.29" y1="197.22" x2="410" y2="208"/><line class="cls-1" x1="389.12" y1="229.83" x2="425.92" y2="225.14"/><line class="cls-1" x1="410" y1="208" x2="389.12" y2="229.83"/><line class="cls-1" x1="410" y1="208" x2="431.86" y2="210.33"/><line class="cls-1" x1="431.86" y1="210.33" x2="425.92" y2="225.14"/><line class="cls-1" x1="365" y1="144.37" x2="337.25" y2="155.37"/><line class="cls-1" x1="277.6" y1="147.02" x2="233.5" y2="139"/><line class="cls-1" x1="233.5" y1="139" x2="211" y2="115"/><line class="cls-1" x1="211" y1="115" x2="247" y2="108.63"/><line class="cls-1" x1="247" y1="108.63" x2="365" y2="144.37"/><line class="cls-1" x1="247" y1="108.63" x2="187.5" y2="84"/><line class="cls-1" x1="187.5" y1="84" x2="231.23" y2="79.46"/><line class="cls-1" x1="291.2" y1="78.63" x2="255.5" y2="61.5"/><line class="cls-1" x1="255.5" y1="61.5" x2="230.12" y2="58"/><line class="cls-1" x1="230.12" y1="58" x2="231.23" y2="79.46"/><line class="cls-1" x1="363.12" y1="159" x2="385.93" y2="168.47"/><line class="cls-1" x1="365" y1="144.37" x2="385.93" y2="168.47"/><line class="cls-1" x1="365" y1="144.37" x2="337.25" y2="155.37"/><line class="cls-1" x1="363.12" y1="159" x2="365" y2="144.37"/><line class="cls-1" x1="300" y1="187.06" x2="374.5" y2="215.3"/><line class="cls-1" x1="300" y1="187.06" x2="364.1" y2="186.33"/><line class="cls-1" x1="364.1" y1="186.33" x2="374.5" y2="215.3"/><line class="cls-1" x1="283" y1="163.49" x2="272.2" y2="176.99"/><line class="cls-1" x1="272.2" y1="176.99" x2="300" y2="187.06"/><line class="cls-1" x1="359.35" y1="184.99" x2="283" y2="163.49"/><line class="cls-1" x1="316.55" y1="215.91" x2="389.12" y2="229.83"/><polyline class="cls-1" points="319.75 216.66 316.55 215.91 316.5 215.9 292.76 210.33"/><line class="cls-1" x1="292.76" y1="210.33" x2="280.5" y2="194.47"/><line class="cls-1" x1="280.5" y1="194.47" x2="300" y2="187.06"/><line class="cls-1" x1="374.5" y1="215.3" x2="389.12" y2="229.83"/><line class="cls-1" x1="455.94" y1="309.5" x2="436.56" y2="318.12"/><line class="cls-1" x1="395.35" y1="368.81" x2="402.98" y2="383.12"/><line class="cls-1" x1="402.98" y1="383.12" x2="423.93" y2="352.31"/><line class="cls-1" x1="423.93" y1="352.31" x2="420.94" y2="393.63"/><line class="cls-1" x1="420.94" y1="393.63" x2="415.9" y2="408.62"/><line class="cls-1" x1="423.93" y1="352.31" x2="437.09" y2="331.38"/><line class="cls-1" x1="436.14" y1="380.17" x2="431.75" y2="396.84"/><line class="cls-1" x1="431.75" y1="396.84" x2="417.89" y2="466.34"/><line class="cls-1" x1="440.74" y1="437.05" x2="452" y2="437.05"/><line class="cls-1" x1="451.8" y1="436.43" x2="457.08" y2="431.93"/><line class="cls-1" x1="431.75" y1="396.84" x2="441.62" y2="391"/><line class="cls-1" x1="440.5" y1="391" x2="439" y2="386.68"/><line class="cls-1" x1="431.75" y1="396.84" x2="420.94" y2="393.63"/><line class="cls-1" x1="439" y1="402.75" x2="445.47" y2="394.88"/><line class="cls-1" x1="553.71" y1="132.31" x2="532.84" y2="129.03"/><line class="cls-1" x1="592.75" y1="160.47" x2="576.42" y2="172.97"/><line class="cls-1" x1="546.06" y1="149.69" x2="576.42" y2="172.97"/><line class="cls-1" x1="569.41" y1="138.63" x2="545.25" y2="149.69"/><line class="cls-1" x1="502.36" y1="423.12" x2="497.92" y2="438.17"/><line class="cls-1" x1="497.92" y1="437.75" x2="486.65" y2="447.25"/><line class="cls-1" x1="497.92" y1="437.75" x2="509.58" y2="460.25"/><line class="cls-1" x1="497.92" y1="438.17" x2="447.68" y2="370.75"/></g></svg>