<?xml version="1.0" encoding="utf-8"?>
<!-- Generator: Adobe Illustrator 22.0.1, SVG Export Plug-In . SVG Version: 6.00 Build 0)  -->
<svg version="1.1" id="Layer_1" xmlns="http://www.w3.org/2000/svg" xmlns:xlink="http://www.w3.org/1999/xlink" x="0px" y="0px"
	 viewBox="0 0 841.9 595.3" style="enable-background:new 0 0 841.9 595.3;" xml:space="preserve">
<style type="text/css">
	.st0{fill:none;stroke:#ED0776;stroke-width:3;stroke-miterlimit:10;}
	.st1{fill:#ED0776;}
</style>
<title>Artboard 1</title>
<g id="Layer_2_1_">
	<line class="st0" x1="526" y1="247.7" x2="526" y2="247"/>
	<line class="st0" x1="514.2" y1="147.8" x2="487.9" y2="170.5"/>
	<polyline class="st0" points="576.4,173 560.2,186.4 559.3,187.1 	"/>
	<polyline class="st0" points="560.4,186.6 560.2,186.4 549.9,175.7 	"/>
	<line class="st0" x1="549.9" y1="175.7" x2="576.4" y2="173"/>
	<line class="st0" x1="532.3" y1="128.7" x2="545.6" y2="149.2"/>
	<line class="st0" x1="585.3" y1="166.2" x2="690.9" y2="215.5"/>
	<g>
		<polygon class="st1" points="690.4,216.9 592.2,161.4 593.7,158.8 701.5,219.7 722.8,232.1 		"/>
	</g>
	<line class="st0" x1="470.2" y1="176.7" x2="486" y2="194.3"/>
	<polyline class="st0" points="486,194.3 429.6,256.3 427.8,258.2 	"/>
	<polyline class="st0" points="429.4,257 429.6,256.3 438.8,219.5 	"/>
	<line class="st0" x1="434.6" y1="155.5" x2="438.8" y2="219.5"/>
	<line class="st0" x1="438.8" y1="219.5" x2="470.1" y2="176.1"/>
	<line class="st0" x1="405.4" y1="138.6" x2="470.2" y2="176.7"/>
	<line class="st0" x1="487.9" y1="170.5" x2="405.4" y2="138.6"/>
	<line class="st0" x1="415.6" y1="256.4" x2="397" y2="288.5"/>
	<line class="st0" x1="426" y1="288.9" x2="387.5" y2="332.2"/>
	<line class="st0" x1="387.5" y1="332.2" x2="397" y2="288.5"/>
	<line class="st0" x1="436.5" y1="318.8" x2="422.3" y2="301.7"/>
	<polyline class="st0" points="410,341 422.3,301.7 426.3,289 	"/>
	<line class="st0" x1="455.1" y1="310.1" x2="426.5" y2="289.6"/>
	<line class="st0" x1="436.5" y1="318.8" x2="410" y2="341"/>
	<line class="st0" x1="410" y1="341" x2="436.5" y2="332.2"/>
	<line class="st0" x1="436.5" y1="332.2" x2="456" y2="320.8"/>
	<line class="st0" x1="456" y1="320.8" x2="436.5" y2="318.8"/>
	<polyline class="st0" points="444.2,503.2 455.4,572.2 455.5,572.8 	"/>
	<polyline class="st0" points="455.4,572.4 455.4,572.2 468.9,467.2 	"/>
	<line class="st0" x1="444.2" y1="503.2" x2="457.2" y2="431.8"/>
	<line class="st0" x1="468.9" y1="466.3" x2="444.2" y2="503.2"/>
	<line class="st0" x1="423.9" y1="352.3" x2="439.1" y2="386.9"/>
	<line class="st0" x1="441.6" y1="391.4" x2="437.1" y2="331.9"/>
	<line class="st0" x1="414.4" y1="339.6" x2="437.1" y2="331.9"/>
	<line class="st0" x1="423.9" y1="352.3" x2="395.4" y2="368.8"/>
	<line class="st0" x1="386.6" y1="355.8" x2="410" y2="341"/>
	<line class="st0" x1="412.7" y1="434.4" x2="417.9" y2="466.3"/>
	<line class="st0" x1="420.9" y1="393.6" x2="403" y2="383.1"/>
	<line class="st0" x1="403" y1="383.1" x2="415.9" y2="408.6"/>
	<line class="st0" x1="415.9" y1="408.6" x2="412.7" y2="434.4"/>
	<line class="st0" x1="455.9" y1="337.7" x2="437.1" y2="331.9"/>
	<line class="st0" x1="410" y1="341" x2="338.1" y2="476.5"/>
	<line class="st0" x1="338.1" y1="476.5" x2="387.5" y2="408.6"/>
	<line class="st0" x1="402.6" y1="413.3" x2="387.5" y2="409.2"/>
	<line class="st0" x1="396.3" y1="463.5" x2="390" y2="453.2"/>
	<line class="st0" x1="390" y1="453.2" x2="365" y2="508.8"/>
	<line class="st0" x1="365" y1="508.8" x2="396.3" y2="463.5"/>
	<line class="st0" x1="404.8" y1="249.5" x2="407.6" y2="270.2"/>
	<line class="st0" x1="397" y1="288.5" x2="404.8" y2="249.5"/>
	<line class="st0" x1="292.8" y1="79.5" x2="350.5" y2="125.7"/>
	<polyline class="st0" points="350.5,125.7 405.2,138.5 405.8,138.6 	"/>
	<polyline class="st0" points="405.4,138.6 405.2,138.5 292.8,79.4 291.2,78.6 	"/>
	<polyline class="st0" points="426.7,225.1 405.5,249.3 405.1,249.8 	"/>
	<polyline class="st0" points="405.1,249 405.5,249.3 415.3,255.6 	"/>
	<line class="st0" x1="429.4" y1="255.2" x2="426.7" y2="226"/>
	<line class="st0" x1="349.8" y1="125.7" x2="231.2" y2="79.5"/>
	<line class="st0" x1="426.7" y1="226" x2="415.6" y2="256.4"/>
	<line class="st0" x1="415.6" y1="256.4" x2="430" y2="255.8"/>
	<line class="st0" x1="426.7" y1="226" x2="438.8" y2="219.5"/>
	<line class="st0" x1="559.3" y1="186.3" x2="526" y2="247"/>
	<line class="st0" x1="552.7" y1="132.5" x2="546.1" y2="149.7"/>
	<line class="st0" x1="569.4" y1="138.7" x2="553.5" y2="132.2"/>
	<line class="st0" x1="594.2" y1="160.7" x2="568.9" y2="138.5"/>
	<line class="st0" x1="546.1" y1="149.7" x2="592.8" y2="160.5"/>
	<polyline class="st0" points="532.7,128.4 515,147 514.9,147.1 514.3,147.8 	"/>
	<polyline class="st0" points="514.8,147 514.9,147.1 549.9,175.7 	"/>
	<polyline class="st0" points="514.8,147 515,147 545.6,149.6 546.1,149.7 	"/>
	<polyline class="st0" points="545.6,149.7 550.5,175.5 550.6,176 	"/>
	<line class="st0" x1="559.3" y1="186.3" x2="486" y2="194.3"/>
	<line class="st0" x1="505.3" y1="224.5" x2="486" y2="194.3"/>
	<line class="st0" x1="505.3" y1="224.5" x2="559.3" y2="186.3"/>
	<line class="st0" x1="455.6" y1="227.5" x2="505.3" y2="224.5"/>
	<polyline class="st0" points="476.5,303 525.3,248.5 526,247.7 	"/>
	<line class="st0" x1="491.6" y1="265.2" x2="524.3" y2="247.7"/>
	<line class="st0" x1="491.6" y1="265.2" x2="476.5" y2="303"/>
	<polyline class="st0" points="526.4,247.5 526,247 505.3,224.5 	"/>
	<line class="st0" x1="491.6" y1="265.2" x2="505.3" y2="224.5"/>
	<polyline class="st0" points="526,247 526,247 491.6,265.2 	"/>
	<line class="st0" x1="458.9" y1="255.2" x2="491.6" y2="265.2"/>
	<line class="st0" x1="458.9" y1="255.2" x2="505.3" y2="224.5"/>
	<line class="st0" x1="505.3" y1="224.5" x2="491.6" y2="265.2"/>
	<line class="st0" x1="455" y1="227.6" x2="458.9" y2="255.2"/>
	<line class="st0" x1="452.2" y1="262.3" x2="476.5" y2="303"/>
	<line class="st0" x1="458.9" y1="255.2" x2="452.2" y2="262.3"/>
	<line class="st0" x1="452.2" y1="262.3" x2="427.8" y2="258.2"/>
	<line class="st0" x1="455" y1="227.6" x2="458.9" y2="255.2"/>
	<line class="st0" x1="427.8" y1="258.2" x2="426.2" y2="289.6"/>
	<line class="st0" x1="452.2" y1="262.3" x2="426.3" y2="289"/>
	<line class="st0" x1="426" y1="288.5" x2="473.8" y2="308.5"/>
	<line class="st0" x1="476.5" y1="303" x2="473.8" y2="309.5"/>
	<line class="st0" x1="549.8" y1="176.1" x2="487" y2="170.7"/>
	<line class="st0" x1="467.8" y1="178.7" x2="487" y2="170.7"/>
	<line class="st0" x1="456" y1="320.8" x2="463.1" y2="331.4"/>
	<polyline class="st0" points="462.8,332.2 463.2,331.4 473.9,309.2 	"/>
	<polyline class="st0" points="473.8,309.5 455,309.5 454.2,309.5 	"/>
	<line class="st0" x1="455" y1="309.5" x2="456" y2="320.8"/>
	<line class="st0" x1="420.4" y1="177.5" x2="431.9" y2="211.6"/>
	<line class="st0" x1="381.3" y1="138" x2="405.4" y2="138.6"/>
	<line class="st0" x1="420.4" y1="177.5" x2="434.6" y2="155.5"/>
	<line class="st0" x1="438.8" y1="219.5" x2="431.9" y2="210.3"/>
	<polyline class="st0" points="455.9,337.7 456,337.8 501.3,420.6 	"/>
	<line class="st0" x1="502.4" y1="423.1" x2="462.8" y2="332.2"/>
	<polyline class="st0" points="462.8,332.2 456,337.8 455.9,337.9 	"/>
	<line class="st0" x1="455.9" y1="337.7" x2="447.6" y2="371"/>
	<line class="st0" x1="447.7" y1="370.8" x2="486.6" y2="446.5"/>
	<line class="st0" x1="486.6" y1="446.5" x2="510" y2="460.5"/>
	<line class="st0" x1="510" y1="460.5" x2="502.4" y2="423.1"/>
	<line class="st0" x1="473.3" y1="369.5" x2="456" y2="374.7"/>
	<line class="st0" x1="447.7" y1="370.8" x2="445.5" y2="394.9"/>
	<line class="st0" x1="502.4" y1="423.1" x2="455.2" y2="374.4"/>
	<line class="st0" x1="445.5" y1="394.9" x2="486.6" y2="446.5"/>
	<line class="st0" x1="445.5" y1="394.9" x2="468.9" y2="466.3"/>
	<line class="st0" x1="468.9" y1="466.3" x2="501.3" y2="499.9"/>
	<g>
		<polygon class="st1" points="499.8,500.2 485.2,446.9 488.1,446.1 502.7,499.5 504.6,505.5 500.2,500.9 		"/>
	</g>
	<line class="st0" x1="436.1" y1="380.2" x2="420.9" y2="393.6"/>
	<polyline class="st0" points="441.7,390.8 438,402.2 417.9,466.3 	"/>
	<line class="st0" x1="417.9" y1="466.3" x2="410" y2="494.2"/>
	<line class="st0" x1="410" y1="494.2" x2="423.6" y2="525.6"/>
	<line class="st0" x1="423.6" y1="525.6" x2="444.2" y2="503.2"/>
	<line class="st0" x1="444.2" y1="503.2" x2="439" y2="402.8"/>
	<line class="st0" x1="402.6" y1="413.3" x2="412.7" y2="433.9"/>
	<line class="st0" x1="402.6" y1="413.3" x2="402.2" y2="383.4"/>
	<line class="st0" x1="402.6" y1="382.8" x2="387.5" y2="408.6"/>
	<line class="st0" x1="387.5" y1="408.6" x2="390" y2="453.2"/>
	<line class="st0" x1="390" y1="453.2" x2="412.7" y2="434.4"/>
	<line class="st0" x1="415.9" y1="408.6" x2="402.6" y2="413.3"/>
	<line class="st0" x1="412.7" y1="433.9" x2="387.5" y2="408.6"/>
	<line class="st0" x1="412.7" y1="434.4" x2="396.3" y2="463.5"/>
	<line class="st0" x1="396.3" y1="463.5" x2="395.5" y2="514.8"/>
	<line class="st0" x1="395.5" y1="517" x2="410" y2="494.2"/>
	<line class="st0" x1="410" y1="494.2" x2="417.9" y2="466.3"/>
	<line class="st0" x1="417.9" y1="466.3" x2="412.7" y2="434.4"/>
	<line class="st0" x1="422.3" y1="301.7" x2="454.2" y2="309.5"/>
	<line class="st0" x1="386.6" y1="355.8" x2="387.5" y2="332.2"/>
	<line class="st0" x1="475.5" y1="361.5" x2="514" y2="406.9"/>
	<g>
		
			<rect x="516.2" y="405.7" transform="matrix(0.9511 -0.309 0.309 0.9511 -104.0758 180.4759)" class="st1" width="3" height="26.2"/>
	</g>
	<g>
		<polygon class="st1" points="521.2,432.6 501.8,424.5 502.9,421.7 523,430.1 524.1,433.7 		"/>
	</g>
	<line class="st0" x1="456" y1="374.7" x2="447.7" y2="370.8"/>
	<line class="st0" x1="558.6" y1="187.7" x2="542.7" y2="242.9"/>
	<line class="st0" x1="542.7" y1="242.9" x2="526" y2="247"/>
	<line class="st0" x1="542.7" y1="242.7" x2="538.4" y2="256.3"/>
	<line class="st0" x1="538.9" y1="255.6" x2="476.5" y2="303"/>
	<line class="st0" x1="526" y1="247" x2="518.9" y2="270.8"/>
	<line class="st0" x1="426.7" y1="225.1" x2="404.8" y2="249.5"/>
	<line class="st0" x1="404.8" y1="249.5" x2="355.1" y2="270.2"/>
	<line class="st0" x1="355.1" y1="270.2" x2="323" y2="259.4"/>
	<line class="st0" x1="323" y1="259.4" x2="333.5" y2="245.3"/>
	<line class="st0" x1="333.5" y1="245.3" x2="394.7" y2="242.9"/>
	<line class="st0" x1="394.7" y1="242.9" x2="405.1" y2="249"/>
	<line class="st0" x1="394.7" y1="242.9" x2="425.9" y2="225.1"/>
	<line class="st0" x1="333.5" y1="245.3" x2="306" y2="234.3"/>
	<line class="st0" x1="306" y1="234.3" x2="320.5" y2="216.7"/>
	<line class="st0" x1="389.1" y1="229.8" x2="394.7" y2="242.9"/>
	<line class="st0" x1="374.5" y1="215.3" x2="410" y2="208"/>
	<line class="st0" x1="364.1" y1="186.3" x2="283" y2="163.5"/>
	<line class="st0" x1="374.5" y1="215.3" x2="397" y2="197.5"/>
	<line class="st0" x1="397" y1="197.5" x2="364.1" y2="186.3"/>
	<line class="st0" x1="364.1" y1="186.3" x2="374.5" y2="215.3"/>
	<line class="st0" x1="283" y1="163.5" x2="265.5" y2="158.7"/>
	<line class="st0" x1="265.5" y1="158.7" x2="277.6" y2="147"/>
	<line class="st0" x1="277.6" y1="147" x2="363.1" y2="159"/>
	<line class="st0" x1="363.1" y1="159" x2="283" y2="163.5"/>
	<line class="st0" x1="385.9" y1="168.5" x2="364.1" y2="186.3"/>
	<line class="st0" x1="420.4" y1="177.5" x2="385.9" y2="168.5"/>
	<line class="st0" x1="385.9" y1="168.5" x2="349.8" y2="125.7"/>
	<line class="st0" x1="349.8" y1="125.7" x2="381.3" y2="138"/>
	<line class="st0" x1="381.3" y1="138" x2="420.4" y2="177.5"/>
	<line class="st0" x1="397" y1="197.5" x2="420.4" y2="177.5"/>
	<line class="st0" x1="397" y1="197.5" x2="427.3" y2="197.2"/>
	<line class="st0" x1="427.3" y1="197.2" x2="410" y2="208"/>
	<line class="st0" x1="389.1" y1="229.8" x2="425.9" y2="225.1"/>
	<line class="st0" x1="410" y1="208" x2="389.1" y2="229.8"/>
	<line class="st0" x1="410" y1="208" x2="431.9" y2="210.3"/>
	<line class="st0" x1="431.9" y1="210.3" x2="425.9" y2="225.1"/>
	<line class="st0" x1="365" y1="144.4" x2="337.2" y2="155.4"/>
	<line class="st0" x1="277.6" y1="147" x2="233.5" y2="139"/>
	<line class="st0" x1="233.5" y1="139" x2="211" y2="115"/>
	<line class="st0" x1="211" y1="115" x2="247" y2="108.6"/>
	<line class="st0" x1="247" y1="108.6" x2="365" y2="144.4"/>
	<line class="st0" x1="247" y1="108.6" x2="187.5" y2="84"/>
	<line class="st0" x1="187.5" y1="84" x2="231.2" y2="79.5"/>
	<line class="st0" x1="291.2" y1="78.6" x2="255.5" y2="61.5"/>
	<line class="st0" x1="255.5" y1="61.5" x2="230.1" y2="58"/>
	<line class="st0" x1="230.1" y1="58" x2="231.2" y2="79.5"/>
	<line class="st0" x1="363.1" y1="159" x2="385.9" y2="168.5"/>
	<line class="st0" x1="365" y1="144.4" x2="385.9" y2="168.5"/>
	<line class="st0" x1="365" y1="144.4" x2="337.2" y2="155.4"/>
	<line class="st0" x1="363.1" y1="159" x2="365" y2="144.4"/>
	<line class="st0" x1="300" y1="187.1" x2="374.5" y2="215.3"/>
	<line class="st0" x1="300" y1="187.1" x2="364.1" y2="186.3"/>
	<line class="st0" x1="364.1" y1="186.3" x2="374.5" y2="215.3"/>
	<line class="st0" x1="283" y1="163.5" x2="272.2" y2="177"/>
	<line class="st0" x1="272.2" y1="177" x2="300" y2="187.1"/>
	<line class="st0" x1="359.4" y1="185" x2="283" y2="163.5"/>
	<line class="st0" x1="316.5" y1="215.9" x2="389.1" y2="229.8"/>
	<polyline class="st0" points="319.8,216.7 316.5,215.9 316.5,215.9 292.8,210.3 	"/>
	<line class="st0" x1="292.8" y1="210.3" x2="280.5" y2="194.5"/>
	<line class="st0" x1="280.5" y1="194.5" x2="300" y2="187.1"/>
	<line class="st0" x1="374.5" y1="215.3" x2="389.1" y2="229.8"/>
	<line class="st0" x1="455.9" y1="309.5" x2="436.6" y2="318.1"/>
	<line class="st0" x1="395.4" y1="368.8" x2="403" y2="383.1"/>
	<line class="st0" x1="403" y1="383.1" x2="423.9" y2="352.3"/>
	<line class="st0" x1="423.9" y1="352.3" x2="420.9" y2="393.6"/>
	<line class="st0" x1="420.9" y1="393.6" x2="415.9" y2="408.6"/>
	<line class="st0" x1="423.9" y1="352.3" x2="437.1" y2="331.4"/>
	<line class="st0" x1="436.1" y1="380.2" x2="431.8" y2="396.8"/>
	<line class="st0" x1="431.8" y1="396.8" x2="417.9" y2="466.3"/>
	<line class="st0" x1="440.7" y1="437" x2="451.6" y2="437"/>
	<line class="st0" x1="450.7" y1="437.4" x2="457.1" y2="431.9"/>
	<line class="st0" x1="431.8" y1="396.8" x2="441.6" y2="391"/>
	<line class="st0" x1="440.5" y1="391" x2="439" y2="386.7"/>
	<line class="st0" x1="431.8" y1="396.8" x2="420.9" y2="393.6"/>
	<line class="st0" x1="439" y1="402.8" x2="445.5" y2="394.9"/>
	<line class="st0" x1="553.9" y1="132.3" x2="531.4" y2="128.8"/>
	<line class="st0" x1="592.8" y1="160.5" x2="576.4" y2="173"/>
	<line class="st0" x1="546.1" y1="149.7" x2="576.4" y2="173"/>
	<line class="st0" x1="569.4" y1="138.6" x2="545.2" y2="149.7"/>
	<line class="st0" x1="502.4" y1="423.1" x2="497.9" y2="438.2"/>
	<line class="st0" x1="497.9" y1="437.8" x2="486.6" y2="447.2"/>
	<g>
		<polygon class="st1" points="508.5,461.3 496.6,438.4 499.3,437.1 511.1,460 511.5,460.2 512.1,463.4 		"/>
	</g>
	<line class="st0" x1="497.9" y1="438.2" x2="447.7" y2="370.8"/>
</g>
</svg>
